<?xml version="1.0" encoding="utf-8"?>
<!-- Generator: Adobe Illustrator 22.0.1, SVG Export Plug-In . SVG Version: 6.00 Build 0)  -->
<svg version="1.1" id="Calque_1" xmlns="http://www.w3.org/2000/svg" xmlns:xlink="http://www.w3.org/1999/xlink" x="0px" y="0px"
	 viewBox="0 0 320 320" style="enable-background:new 0 0 320 320;" xml:space="preserve">
<style type="text/css">
	.st0{fill:#51403D;stroke:#E54C33;stroke-width:0.1;stroke-miterlimit:10;}
	.st1{fill:none;}
	.st2{fill:#FFB401;stroke:#51403D;stroke-width:0.1;stroke-miterlimit:10;}
	.st3{font-family:'TwCenMT-CondensedExtraBold';}
	.st4{font-size:28px;}
	.st5{font-size:16px;}
</style>
<g>
	<g>
		<g>
			<path class="st0" d="M117.5,142.6c0,0-3.9-1.2-6.2-3c0,0,2.2,1.7,1.6,2.9C112.9,142.5,115.8,142,117.5,142.6z"/>
			<g>
				<path class="st0" d="M94.2,126.3c0,0,10.3,0.9,13.2-3.6l-0.1-8.3c0,0-5.6-5.3-9.6-4.8c0,0-9.4-1.7-9.6,6.9
					C88.2,116.4,86.8,123.8,94.2,126.3z M90.4,117.1c1.3-5.7,7.6-4.9,7.6-4.9c5.1,0.1,8.5,4.2,8.5,4.2l-0.2,5.7
					c-4.7,3.3-9.8,2.6-9.8,2.6C89.7,123.9,90.4,117.1,90.4,117.1z"/>
				<path class="st0" d="M86,134.6c0,0-0.2,9.1,7.7,9.9c0,0,12,1.5,13.9-7l0.4-14.3c0,0-5.9,6.1-14.9,3
					C93,126.3,86.2,127.2,86,134.6z M88.2,135.3c-1-4,5.9-6.7,5.9-6.7c2.3,1.2,12.6-1.9,12.6-1.9l-0.9,10.3
					c-2.4,5.1-10.4,5.4-10.4,5.4C89.1,143.3,88.2,135.3,88.2,135.3z"/>
				<path class="st0" d="M115.4,100.9c-0.1,3,2.3,5.5,5.3,5.6c3,0.1,5.5-2.3,5.6-5.3c0.1-3-2.3-5.5-5.3-5.6
					C118,95.5,115.5,97.9,115.4,100.9z M122.8,103.4c0-0.5,0.4-0.8,0.9-0.8c0.5,0,0.8,0.4,0.8,0.9c0,0.5-0.4,0.8-0.9,0.8
					C123.2,104.2,122.8,103.8,122.8,103.4z M118.8,104.4c0-0.8,0.7-1.4,1.5-1.4c0.8,0,1.4,0.7,1.4,1.5c0,0.8-0.7,1.4-1.5,1.4
					C119.4,105.8,118.8,105.2,118.8,104.4z M117.2,99.8c0-1.4,1.2-2.5,2.6-2.5c1.4,0,2.5,1.2,2.5,2.6c0,1.4-1.2,2.5-2.6,2.5
					C118.3,102.4,117.2,101.2,117.2,99.8z"/>
				<path class="st0" d="M106.1,106.6l1.5,7.5l0.5,22.9c0,0,6.7,7,12.4,5.5c0,0,15.4-0.7,12.5-16.8c0,0-0.4-5.2-6.1-8.2
					c0,0-18.1-7.4-18-9.1c0,0-4.2-14.4,5.6-15.3c0,0,7.5-2.1,11.9,4.3c0,0,2.3,1.2,1,6.3c0,0-3,6.2-4.7,6.2c0,0,4,0.1,7-5
					c0,0,2.5-7.9-4.8-12.1c0,0,5.4-10.1,16.2-7l0,1.1c0,0,0.6,0.6,1.1,0.6c0.6,0,1.1,0.6,1.7-0.5c0.6-1.1-0.5-2.3-1.1-2.3
					c-0.6,0-1.1,0-1.1,0s-14.2-3.8-18.5,6.9c0,0-6.8-2.5-10.8-0.3c0,0-2.4-16.6,3.3-17.1c0,0,2.9,0.1,1.8-1.7c0,0-2.8-2.4-3.4,0.5
					c0,0-5.8,2.7-4,19.3C110,92.4,103,96.3,106.1,106.6z M110,134.2c2.2,3.5,16.5,3.3,16.5,3.3c-0.6,2.8-4.1,3.9-4.1,3.9
					c-4.6,1-12.5-4.3-12.5-4.3L110,134.2z M109.6,127.3c7.3,3.1,20.6-1.7,20.6-1.7s0.5,2.3-0.2,6.3c-0.7,4-20.6-0.6-20.6-0.6
					L109.6,127.3z M109.8,119.3c3.4,0.7,10.9-2,10.9-2l5.6,3.6c1,3.5-16.7,3.5-16.7,3.5L109.8,119.3z M109.1,113.9
					c0-1.1,2.3-0.5,2.3-0.5c1.1,0,4.5,1.8,4.5,1.8s2.3,0.6-0.6,0c-2.8-0.6-6.3,2.1-6.3,2.1L109.1,113.9z"/>
			</g>
		</g>
	</g>
	<rect x="91" y="138" class="st1" width="122" height="35"/>
	<text transform="matrix(1 0 0 1 91 157.2637)"><tspan x="0" y="0" class="st2 st3 st4">B</tspan><tspan x="14.3" y="0" class="st0 st3 st5">iz</tspan><tspan x="24.7" y="0" class="st2 st3 st4">O</tspan><tspan x="40.4" y="0" class="st0 st3 st5">nline</tspan></text>
</g>
</svg>
