<?xml version="1.0" encoding="utf-8"?>
<!-- Generator: Adobe Illustrator 22.0.1, SVG Export Plug-In . SVG Version: 6.00 Build 0)  -->
<svg version="1.1" id="Calque_1" xmlns="http://www.w3.org/2000/svg" xmlns:xlink="http://www.w3.org/1999/xlink" x="0px" y="0px"
	 viewBox="0 0 320 320" style="enable-background:new 0 0 320 320;" xml:space="preserve">
<style type="text/css">
	.st0{fill:#51403D;}
	.st1{fill:#FFB401;}
</style>
<path class="st0" d="M117.5,142.6c0,0-3.9-1.2-6.2-3c0,0,2.2,1.7,1.6,2.9C112.9,142.5,115.8,142,117.5,142.6z"/>
<path class="st1" d="M117.5,142.6L117.5,142.6c0,0-1-0.3-2.2-0.9c-1.3-0.5-2.8-1.3-3.9-2.2l-0.1,0.1c0,0,0.4,0.3,0.8,0.8
	c0.4,0.5,0.8,1.1,0.8,1.6c0,0.1,0,0.3-0.1,0.4l0,0.1l0.1,0c0,0,1.1-0.2,2.4-0.2C116,142.4,116.8,142.5,117.5,142.6L117.5,142.6
	L117.5,142.6L117.5,142.6L117.5,142.6c-0.6-0.3-1.4-0.4-2.2-0.4c-1.3,0-2.4,0.2-2.4,0.2l0,0l0,0c0.1-0.1,0.1-0.3,0.1-0.5
	c0-1.1-1.7-2.5-1.7-2.5l-0.1,0.1C113.6,141.5,117.5,142.7,117.5,142.6L117.5,142.6L117.5,142.6z"/>
<path class="st0" d="M94.2,126.3c0,0,10.3,0.9,13.2-3.6l-0.1-8.3c0,0-5.6-5.3-9.6-4.8c0,0-9.4-1.7-9.6,6.9
	C88.2,116.4,86.8,123.8,94.2,126.3z M90.4,117.1c1.3-5.7,7.6-4.9,7.6-4.9c5.1,0.1,8.5,4.2,8.5,4.2l-0.2,5.7
	c-4.7,3.3-9.8,2.6-9.8,2.6C89.7,123.9,90.4,117.1,90.4,117.1z"/>
<path class="st1" d="M94.2,126.3L94.2,126.3c0,0,0.8,0.1,2,0.1c3.1,0,9.1-0.4,11.3-3.7l0,0l-0.1-8.3l0,0c0,0-5.1-4.9-9.1-4.9
	c-0.2,0-0.3,0-0.5,0l0,0l0,0c0,0-0.8-0.1-1.8-0.1c-2.7,0-7.7,0.9-7.8,7.1l0,0l0,0c0,0-0.1,0.5-0.1,1.4C88,120,88.7,124.5,94.2,126.3
	L94.2,126.3L94.2,126.3L94.2,126.3L94.2,126.3c-5.3-1.9-6.1-6.3-6.1-8.5c0-0.8,0.1-1.3,0.1-1.3l0,0l0,0c0.2-6.1,5-7,7.7-7
	c1.1,0,1.8,0.1,1.8,0.1l0,0l0,0c0.2,0,0.3,0,0.5,0c2,0,4.2,1.2,6,2.4c0.9,0.6,1.6,1.2,2.2,1.7c0.5,0.5,0.9,0.8,0.9,0.8l0,0l-0.1,0
	l0.1,8.3l0.1,0l0,0c-2.1,3.2-8.1,3.7-11.2,3.7C95,126.3,94.2,126.3,94.2,126.3L94.2,126.3L94.2,126.3L94.2,126.3z M90.4,117.1
	L90.4,117.1c1.1-4.5,5.2-4.9,6.9-4.9c0.4,0,0.7,0,0.7,0l0,0l0,0c2.6,0.1,4.7,1.1,6.1,2.2c0.7,0.5,1.3,1,1.7,1.4
	c0.4,0.4,0.6,0.6,0.6,0.6l0,0l0,0l-0.2,5.7l0,0l0,0c-3.2,2.3-6.7,2.6-8.5,2.6c-0.8,0-1.2-0.1-1.2-0.1l0,0l0,0
	c-5.6-0.6-6.1-5.3-6.1-6.9C90.5,117.3,90.5,117.1,90.4,117.1L90.4,117.1L90.4,117.1L90.4,117.1L90.4,117.1c0,0-0.1,0.2-0.1,0.6
	c0,1.7,0.5,6.4,6.1,7l0,0l0,0c0,0,0.5,0.1,1.2,0.1c1.8,0,5.3-0.3,8.6-2.7l0,0l0.2-5.8l0,0c0,0-3.3-4.1-8.5-4.2l0,0l0,0
	c0,0-0.3,0-0.7,0C95.6,112,91.4,112.5,90.4,117.1L90.4,117.1L90.4,117.1L90.4,117.1z"/>
<path class="st0" d="M86,134.6c0,0-0.3,9.1,7.7,9.9c0,0,12,1.5,13.9-7l0.4-14.3c0,0-5.9,6.1-14.9,3C93,126.3,86.2,127.2,86,134.6z
	 M88.2,135.3c-1-4,5.9-6.7,5.9-6.7c2.3,1.2,12.6-1.9,12.6-1.9l-0.9,10.3c-2.4,5.1-10.4,5.4-10.4,5.4
	C89.1,143.3,88.2,135.3,88.2,135.3z"/>
<path class="st1" d="M86,134.6L86,134.6L86,134.6c-0.1,1,0.2,9.2,7.7,10l0,0l0,0c0,0,0.8,0.1,2,0.1c3.5,0,10.5-0.8,12-7.2l0,0
	l0.4-14.4l-0.1,0.1c0,0-0.2,0.2-0.7,0.6c-1.3,1.1-4.6,3.3-9.1,3.3c-1.5,0-3.2-0.2-5.1-0.9l0,0l0,0c0,0-1.7,0.2-3.5,1.4
	C87.8,128.8,86,130.9,86,134.6L86,134.6L86,134.6c0.2-3.7,1.9-5.8,3.6-6.9c0.9-0.6,1.7-0.9,2.4-1.1c0.6-0.2,1.1-0.3,1.1-0.3l0,0l0,0
	c1.8,0.6,3.5,0.9,5.1,0.9c6.1,0,9.9-3.9,9.9-3.9l0,0l0,0l-0.4,14.3l0,0l0,0c-1.4,6.3-8.4,7.1-11.9,7.1c-1.2,0-2-0.1-2-0.1l0,0l0,0
	C86.2,143.8,86,135.7,86,134.6L86,134.6L86,134.6z M88.2,135.3L88.2,135.3c0-0.3-0.1-0.6-0.1-0.8c0-1.8,1.5-3.2,3-4.2
	c0.7-0.5,1.5-0.9,2.1-1.2c0.6-0.3,0.9-0.4,0.9-0.4l0,0l0,0c0.4,0.2,1,0.3,1.7,0.3c3.7,0,11-2.2,11-2.2l0,0l0,0l-0.9,10.3l0,0l0,0
	c-1.2,2.5-3.8,3.9-6.1,4.6c-1.1,0.4-2.2,0.6-3,0.7c-0.8,0.1-1.3,0.1-1.3,0.1l0,0l0,0c-0.4,0.1-0.7,0.1-1,0.1c-2.7,0-4.2-1.8-5.1-3.5
	c-0.4-0.9-0.7-1.8-0.9-2.4C88.3,135.7,88.3,135.3,88.2,135.3L88.2,135.3L88.2,135.3L88.2,135.3L88.2,135.3c0,0,0.2,1.8,1,3.6
	c0.9,1.8,2.5,3.6,5.2,3.6c0.3,0,0.7,0,1-0.1l0,0l0,0c0,0,8-0.3,10.5-5.5l0,0l0.9-10.3l-0.1,0c0,0-1.8,0.6-4.1,1.1
	c-2.3,0.6-5,1.1-6.9,1.1c-0.7,0-1.3-0.1-1.6-0.3l0,0l0,0c0,0-6,2.3-6,5.9C88.1,134.7,88.1,135,88.2,135.3L88.2,135.3L88.2,135.3
	L88.2,135.3z"/>
<path class="st0" d="M115.4,100.9c-0.1,3,2.3,5.5,5.3,5.6c3,0.1,5.5-2.3,5.6-5.3c0.1-3-2.3-5.5-5.3-5.6
	C118,95.5,115.5,97.9,115.4,100.9z M122.8,103.4c0-0.5,0.4-0.8,0.9-0.8c0.5,0,0.8,0.4,0.8,0.9c0,0.5-0.4,0.8-0.9,0.8
	C123.2,104.2,122.8,103.8,122.8,103.4z M118.8,104.4c0-0.8,0.7-1.4,1.5-1.4c0.8,0,1.4,0.7,1.4,1.5s-0.7,1.4-1.5,1.4
	C119.4,105.8,118.8,105.2,118.8,104.4z M117.2,99.8c0-1.4,1.2-2.5,2.6-2.5c1.4,0,2.5,1.2,2.5,2.6c0,1.4-1.2,2.5-2.6,2.5
	C118.3,102.4,117.2,101.2,117.2,99.8z"/>
<path class="st1" d="M115.4,100.9L115.4,100.9l-0.1,0.2c0,3,2.4,5.4,5.3,5.5l0.2,0c3,0,5.4-2.4,5.5-5.3l0-0.2c0-3-2.4-5.4-5.3-5.5
	l-0.2,0C117.9,95.6,115.5,97.9,115.4,100.9L115.4,100.9L115.4,100.9c0.1-2.9,2.5-5.2,5.4-5.2l0.1,0c2.9,0.1,5.2,2.5,5.2,5.4l0,0.1
	c-0.1,2.9-2.5,5.2-5.4,5.2l-0.1,0c-2.9-0.1-5.2-2.5-5.2-5.4L115.4,100.9L115.4,100.9z M122.8,103.4L122.8,103.4
	c0.1-0.4,0.4-0.8,0.9-0.8l0,0c0.4,0,0.8,0.4,0.8,0.8l0,0c0,0.4-0.4,0.8-0.8,0.8l0,0C123.2,104.2,122.9,103.8,122.8,103.4
	L122.8,103.4L122.8,103.4L122.8,103.4L122.8,103.4c-0.1,0.5,0.3,0.9,0.8,0.9l0,0c0.5,0,0.9-0.4,0.9-0.9l0,0c0-0.5-0.4-0.9-0.9-0.9
	l0,0C123.2,102.5,122.8,102.9,122.8,103.4L122.8,103.4z M118.8,104.4L118.8,104.4c0.1-0.7,0.7-1.3,1.4-1.3l0,0
	c0.7,0,1.3,0.6,1.3,1.4l0,0c0,0.7-0.6,1.3-1.4,1.3l0,0C119.4,105.8,118.8,105.2,118.8,104.4L118.8,104.4L118.8,104.4L118.8,104.4
	L118.8,104.4c-0.1,0.8,0.6,1.5,1.4,1.5l0,0c0.8,0,1.5-0.6,1.5-1.4l0,0c0-0.8-0.6-1.5-1.4-1.5l0,0C119.4,103,118.8,103.6,118.8,104.4
	L118.8,104.4z M117.2,99.8L117.2,99.8c0.1-1.4,1.2-2.5,2.6-2.5l0.1,0c1.4,0,2.5,1.2,2.5,2.5l0,0.1c0,1.4-1.2,2.5-2.5,2.5l-0.1,0
	C118.3,102.3,117.2,101.2,117.2,99.8L117.2,99.8L117.2,99.8L117.2,99.8L117.2,99.8c-0.1,1.5,1.1,2.7,2.5,2.7l0.1,0
	c1.4,0,2.6-1.1,2.6-2.5l0-0.1c0-1.4-1.1-2.6-2.5-2.6l-0.1,0C118.3,97.2,117.2,98.4,117.2,99.8L117.2,99.8z"/>
<path class="st0" d="M106.1,106.6l1.5,7.5l0.5,22.9c0,0,6.7,7,12.4,5.5c0,0,15.4-0.7,12.5-16.8c0,0-0.4-5.2-6.1-8.2
	c0,0-18.1-7.4-18-9.1c0,0-4.2-14.4,5.6-15.3c0,0,7.5-2.1,11.9,4.3c0,0,2.3,1.2,1,6.3c0,0-3,6.2-4.7,6.2c0,0,4,0.1,7-5
	c0,0,2.5-7.9-4.8-12.1c0,0,5.4-10.1,16.2-7l0,1.1c0,0,0.6,0.6,1.1,0.6c0.6,0,1.1,0.6,1.7-0.5s-0.5-2.3-1.1-2.3c-0.6,0-1.1,0-1.1,0
	s-14.2-3.8-18.5,6.9c0,0-6.8-2.5-10.8-0.3c0,0-2.4-16.6,3.3-17.1c0,0,2.9,0.1,1.8-1.7c0,0-2.8-2.4-3.4,0.5c0,0-5.8,2.7-4,19.3
	C110,92.4,103,96.3,106.1,106.6z M110,134.2c2.2,3.5,16.5,3.3,16.5,3.3c-0.6,2.8-4.1,3.9-4.1,3.9c-4.6,1-12.5-4.3-12.5-4.3
	L110,134.2z M109.6,127.3c7.3,3.1,20.6-1.7,20.6-1.7s0.5,2.3-0.2,6.3c-0.7,4-20.6-0.6-20.6-0.6L109.6,127.3z M109.8,119.3
	c3.4,0.7,10.9-2,10.9-2l5.6,3.6c1,3.5-16.7,3.5-16.7,3.5L109.8,119.3z M109.1,113.9c0-1.1,2.3-0.5,2.3-0.5c1.1,0,4.5,1.8,4.5,1.8
	s2.3,0.6-0.6,0s-6.3,2.1-6.3,2.1L109.1,113.9z"/>
<path class="st1" d="M106.1,106.6L106.1,106.6l1.5,7.5l0.5,22.9l0,0c0,0,5.4,5.7,10.7,5.7c0.6,0,1.2-0.1,1.8-0.2l0,0l0,0
	c0,0,3.2-0.1,6.4-1.8c3.2-1.7,6.5-4.9,6.4-11.1c0-1.2-0.1-2.5-0.4-3.9l0,0l0,0c0,0-0.4-5.2-6.1-8.2l0,0l0,0c0,0-1.1-0.5-2.8-1.2
	c-2.5-1.1-6.3-2.7-9.5-4.3c-1.6-0.8-3-1.5-4-2.1c-1-0.6-1.7-1.2-1.6-1.4l0,0l0,0l0,0c0,0-0.2-0.8-0.4-2c-0.2-1.2-0.4-2.8-0.4-4.5
	c0-3.9,1.2-8.3,6.4-8.8l0,0l0,0c0,0,0.3-0.1,0.8-0.2c0.5-0.1,1.2-0.2,2-0.2c2.6,0,6.4,0.8,9,4.6l0,0l0,0c0,0,0.1,0,0.2,0.2
	c0.4,0.3,1.1,1.2,1.1,3.3c0,0.8-0.1,1.7-0.4,2.8l0,0l0,0c0,0-0.8,1.5-1.7,3.1c-1,1.5-2.2,3.1-3,3.1l0,0l0,0.1l0,0c0.3,0,4.1-0.1,7-5
	l0,0l0,0c0,0,0.4-1.3,0.4-3.2c0-2.7-0.9-6.5-5.2-9l0,0l0,0c0,0,0.3-0.5,0.8-1.2c1.5-2.1,5.3-6.4,11.3-6.4c1.3,0,2.6,0.2,4,0.6l0,0
	l0,0l0,1.1l0,0l0,0c0,0,0.6,0.6,1.2,0.6c0.3,0,0.6,0.2,0.9,0.2c0.3,0,0.6-0.2,0.9-0.7c0.1-0.2,0.2-0.5,0.2-0.7
	c0-0.9-0.8-1.7-1.3-1.7c-0.6,0-1.1,0-1.1,0l0,0l0,0c0,0-2.5-0.7-5.6-0.7c-4.5,0-10.4,1.3-12.9,7.6l0,0l0,0c0,0-3.3-1.2-6.7-1.2
	c-1.5,0-3,0.2-4.2,0.9l0,0l0,0c0,0-0.1-0.9-0.2-2.2c-0.1-1.3-0.2-3.2-0.2-5.1c0-2.3,0.2-4.7,0.7-6.5c0.6-1.8,1.5-3.1,3-3.2l0,0l0,0
	l0.1,0c0.2,0,0.7,0,1.1-0.1c0.5-0.1,0.9-0.4,0.9-0.9c0-0.2-0.1-0.4-0.3-0.7l0,0l0,0c0,0-1.1-0.9-2.1-0.9c-0.6,0-1.2,0.4-1.4,1.4l0,0
	l0,0c0,0-4.3,2-4.3,13.3c0,1.8,0.1,3.8,0.4,6.1l0,0l0,0c0,0-4.7,2.6-4.7,9.1C105.3,103,105.5,104.7,106.1,106.6L106.1,106.6
	L106.1,106.6L106.1,106.6L106.1,106.6c-0.5-1.9-0.8-3.6-0.8-5.1c0-3.3,1.2-5.5,2.3-7c0.6-0.7,1.2-1.2,1.6-1.6
	c0.4-0.3,0.7-0.5,0.7-0.5l0,0l0,0c-0.2-2.3-0.4-4.3-0.4-6.1c0-5.6,1.1-8.9,2.2-10.8c0.5-0.9,1.1-1.5,1.5-1.9
	c0.2-0.2,0.4-0.3,0.5-0.4c0.1-0.1,0.2-0.1,0.2-0.1l0,0l0,0c0.2-1.1,0.8-1.4,1.3-1.4c0.5,0,1,0.2,1.4,0.5c0.4,0.2,0.7,0.5,0.7,0.5
	l0,0l0,0c0.2,0.3,0.2,0.5,0.2,0.7c0,0.4-0.4,0.6-0.8,0.8c-0.4,0.1-0.9,0.1-1.1,0.1l-0.1,0l0,0l0,0c-1.6,0.1-2.6,1.5-3.1,3.3
	c-0.6,1.9-0.7,4.3-0.7,6.5c0,3.8,0.5,7.3,0.5,7.3l0,0.1l0.1,0c1.2-0.7,2.7-0.9,4.2-0.9c1.7,0,3.3,0.3,4.6,0.6c1.2,0.3,2,0.6,2.1,0.6
	l0,0l0,0c2.5-6.3,8.4-7.5,12.8-7.6c1.6,0,3,0.2,4,0.3c1,0.2,1.6,0.3,1.6,0.3l0,0l0,0c0,0,0.6,0,1.1,0c0.4,0,1.2,0.7,1.2,1.6
	c0,0.2,0,0.4-0.2,0.7c-0.3,0.5-0.6,0.7-0.8,0.7c-0.3,0-0.6-0.2-0.9-0.2c-0.3,0-0.5-0.2-0.7-0.3c-0.2-0.1-0.3-0.3-0.3-0.3l0,0l0,0
	l0-1.1l0,0l0,0c-1.5-0.4-2.8-0.6-4.1-0.6c-8.1,0-12.2,7.6-12.2,7.6l0,0l0,0c4.3,2.5,5.2,6.3,5.2,8.9c0,1.8-0.4,3.1-0.4,3.1l0,0l0,0
	c-2.9,4.8-6.6,4.9-6.9,4.9l0,0l0,0.1l0,0c0.9,0,2.1-1.6,3-3.1c1-1.5,1.7-3.1,1.7-3.1l0,0l0,0c0.3-1.1,0.4-2.1,0.4-2.9
	c0-2.8-1.4-3.5-1.4-3.5l0,0l0,0c-2.7-3.9-6.5-4.7-9.1-4.7c-1.7,0-2.8,0.3-2.9,0.3l0,0l0,0c-5.3,0.5-6.5,4.9-6.5,8.9
	c0,3.4,0.9,6.5,0.9,6.5l0,0l0,0l0,0c0,0.3,0.3,0.6,0.8,0.9c3.5,2.6,17.3,8.2,17.3,8.2l0,0l0,0c2.8,1.5,4.3,3.5,5.1,5.2
	c0.4,0.8,0.6,1.6,0.8,2.1c0.1,0.5,0.2,0.8,0.2,0.8l0,0l0,0c0.3,1.4,0.4,2.7,0.4,3.9c0,6.1-3.2,9.3-6.4,11c-1.6,0.8-3.2,1.3-4.4,1.5
	c-1.2,0.2-2,0.3-2,0.3l0,0l0,0c-0.6,0.2-1.1,0.2-1.7,0.2c-2.6,0-5.3-1.4-7.3-2.8c-1-0.7-1.8-1.4-2.4-2c-0.6-0.5-0.9-0.9-0.9-0.9l0,0
	l0,0l-0.5-22.9L106.1,106.6L106.1,106.6L106.1,106.6z M110,134.2L110,134.2c1,1.6,4.5,2.5,8,2.9c3.5,0.4,7,0.5,8.2,0.5
	c0.2,0,0.4,0,0.4,0l0,0l0,0c-0.3,1.4-1.3,2.4-2.3,3c-0.5,0.3-0.9,0.5-1.3,0.7c-0.3,0.1-0.5,0.2-0.5,0.2l0,0l0,0
	c-0.4,0.1-0.8,0.1-1.3,0.1c-2.3,0-5.1-1.1-7.3-2.2c-1.1-0.6-2.1-1.1-2.8-1.5c-0.7-0.4-1.1-0.7-1.1-0.7l0,0l0,0L110,134.2L110,134.2
	L110,134.2L110,134.2L110,134.2l-0.1,2.9l0,0c0,0,6.6,4.5,11.2,4.5c0.4,0,0.9,0,1.3-0.1l0,0l0,0c0,0,3.5-1,4.1-3.9l0-0.1l-0.1,0
	c0,0-0.1,0-0.4,0c-1.1,0-4.6,0-8.1-0.5C114.4,136.5,111,135.7,110,134.2l0-0.2L110,134.2L110,134.2z M109.6,127.3L109.6,127.3
	c1.8,0.8,3.9,1.1,6.1,1.1c6.9,0,14.5-2.7,14.5-2.7l0,0l0,0c0,0,0,0.2,0.1,0.6c0,0.4,0.1,1,0.1,1.7c0,1-0.1,2.3-0.4,3.9
	c-0.2,1.2-2.1,1.6-4.8,1.6c-3,0-7-0.5-10.1-1.1c-1.6-0.3-3-0.5-4-0.8c-1-0.2-1.6-0.3-1.6-0.3l0,0l0,0L109.6,127.3L109.6,127.3
	L109.6,127.3L109.6,127.3L109.6,127.3l-0.2,4l0,0c0,0,9.6,2.2,15.7,2.2c2.7,0,4.7-0.4,4.9-1.7c0.3-1.6,0.4-2.9,0.4-3.9
	c0-1.5-0.2-2.4-0.2-2.4l0-0.1l-0.1,0c0,0-0.5,0.2-1.3,0.4c-2.5,0.8-8,2.3-13.2,2.3C113.5,128.3,111.4,128,109.6,127.3L109.6,127.3
	L109.6,127.3L109.6,127.3z M109.8,119.3L109.8,119.3c0.4,0.1,0.8,0.2,1.3,0.2c3.7,0,9.7-2.1,9.7-2.1l0,0l0,0l5.6,3.6l0,0l0,0
	c0,0.1,0,0.2,0,0.3c0,0.7-1,1.3-2.6,1.8c-2.3,0.7-5.9,1-8.8,1.2c-2.9,0.2-5.3,0.2-5.3,0.2l0,0.1l0,0L109.8,119.3L109.8,119.3
	L109.8,119.3L109.8,119.3L109.8,119.3l-0.2,5.2l0.1,0c0,0,4.2,0,8.4-0.4c2.1-0.2,4.2-0.5,5.8-1c1.6-0.5,2.6-1.1,2.6-1.9
	c0-0.1,0-0.2,0-0.3l0,0l-5.7-3.6l0,0c0,0-1.5,0.5-3.4,1c-1.9,0.5-4.3,1-6.2,1C110.6,119.4,110.2,119.3,109.8,119.3L109.8,119.3
	L109.8,119.3L109.8,119.3z M109.1,113.9L109.1,113.9c0.1-0.3,0.2-0.4,0.4-0.5c0.2-0.1,0.4-0.1,0.7-0.1c0.6,0,1.2,0.2,1.2,0.2l0,0
	l0,0c0.6,0,1.7,0.5,2.7,0.9c1,0.5,1.8,0.9,1.8,0.9l0,0l0,0c0,0,0.2,0.1,0.4,0.1c0.1,0,0.2,0.1,0.3,0.1l0.1,0l0,0l0,0l0,0l0,0l0,0
	l0,0l0,0h0l0,0l0,0h0h0l0,0l0,0h0l0,0l0,0l0,0l0,0l0,0l0,0c-0.1,0-0.4-0.1-1.4-0.3c-0.3-0.1-0.6-0.1-0.9-0.1c-2.7,0-5.5,2.2-5.5,2.2
	l0,0l0,0L109.1,113.9L109.1,113.9L109.1,113.9l-0.1,3.5l0.1-0.1c0,0,0.7-0.6,1.7-1.1c1-0.6,2.4-1.1,3.7-1.1c0.3,0,0.6,0,0.9,0.1
	c1,0.2,1.3,0.3,1.4,0.3l0,0l0-0.1l0-0.1c-0.1-0.1-0.9-0.3-0.9-0.3l0,0l0,0c0,0-3.4-1.8-4.5-1.8l0,0l0,0c0,0-0.6-0.2-1.2-0.2
	c-0.3,0-0.5,0-0.8,0.1C109.2,113.4,109,113.6,109.1,113.9L109.1,113.9z"/>
<path class="st1" d="M97.4,149.8c1.9,0,2.8,0.7,2.8,2c0,0.7-0.3,1.2-0.8,1.5c-0.5,0.3-1.3,0.5-2.4,0.5v-4H97.4z M99.2,143
	c0.4,0.3,0.7,0.8,0.7,1.5c0,1.2-0.9,1.9-2.8,1.9v-3.9C98.1,142.5,98.8,142.7,99.2,143z M93,157.3h5.4c1.8,0,3.3-0.5,4.4-1.4
	c1.1-1,1.7-2.2,1.7-3.8c0-2-0.9-3.3-2.7-4c1.6-1,2.4-2.3,2.4-3.9c0-1.5-0.5-2.7-1.6-3.7c-1.1-1-2.8-1.4-5.3-1.4H93V157.3z"/>
<path class="st0" d="M97.4,149.8L97.4,149.8c1.9,0.1,2.7,0.7,2.8,2c0,0.7-0.3,1.2-0.8,1.5c-0.5,0.3-1.3,0.5-2.3,0.5l0,0.1h0v-3.9
	L97.4,149.8L97.4,149.8L97.4,149.8l-0.3-0.1H97v4.1l0.1,0c1.1,0,1.8-0.2,2.4-0.5c0.5-0.3,0.8-0.8,0.8-1.6
	C100.3,150.4,99.3,149.7,97.4,149.8L97.4,149.8z M99.2,143L99.2,143c0.4,0.3,0.6,0.8,0.6,1.5c0,1.2-0.9,1.8-2.7,1.9l0,0.1h0v-3.9h0
	l0,0C98.1,142.6,98.8,142.7,99.2,143L99.2,143L99.2,143c-0.4-0.3-1.1-0.5-2.1-0.5l-0.1,0v4l0.1,0c1.9,0,2.8-0.7,2.8-2
	C99.9,143.8,99.7,143.2,99.2,143L99.2,143z M93,157.3L93,157.3l5.4,0c1.8,0,3.3-0.5,4.4-1.5c1.1-1,1.7-2.3,1.7-3.9
	c0-2-0.9-3.3-2.7-4.1l0,0l0,0c1.6-1,2.4-2.3,2.4-3.9c0-1.5-0.5-2.7-1.6-3.7c-1.1-1-2.9-1.5-5.3-1.5h-4.3L93,157.3L93,157.3L93,157.3
	L93,157.3l0-18.2h4.2c2.4,0,4.2,0.5,5.3,1.4c1.1,1,1.6,2.2,1.6,3.6c0,1.6-0.8,2.9-2.3,3.8l-0.1,0.1l0.1,0c1.8,0.7,2.6,2,2.6,4
	c0,1.6-0.5,2.8-1.6,3.8c-1.1,1-2.5,1.4-4.3,1.4L93,157.3L93,157.3L93,157.3L93,157.3z"/>
<path class="st0" d="M110.1,152h2l-2.3,5.3h5.4v-1.9h-2.1l2.3-5.3h-5.3V152z M106.2,157.3h2.3v-7.2h-2.3V157.3z M106.5,148.8
	c0.2,0.2,0.5,0.4,0.8,0.4c0.3,0,0.6-0.1,0.9-0.4c0.2-0.2,0.4-0.5,0.4-0.8c0-0.3-0.1-0.6-0.4-0.9s-0.5-0.4-0.9-0.4
	c-0.3,0-0.6,0.1-0.8,0.4s-0.4,0.5-0.4,0.9C106.1,148.2,106.3,148.5,106.5,148.8z"/>
<path class="st1" d="M110.1,152L110.1,152l1.9,0l-2.3,5.3h5.5v-2h-2.1l2.3-5.3H110L110.1,152L110.1,152L110.1,152L110.1,152l0-1.8
	h5.1l-2.3,5.3h2.2v1.8h-5.3l2.3-5.3L110.1,152L110.1,152L110.1,152L110.1,152z M106.2,157.3L106.2,157.3l2.3,0V150h-2.4L106.2,157.3
	L106.2,157.3L106.2,157.3L106.2,157.3l0-7.1h2.2v7.1L106.2,157.3L106.2,157.3L106.2,157.3L106.2,157.3z M106.5,148.8L106.5,148.8
	c0.2,0.3,0.5,0.4,0.8,0.4c0.3,0,0.6-0.1,0.9-0.4c0.2-0.2,0.4-0.5,0.4-0.9c0-0.3-0.1-0.6-0.4-0.9c-0.2-0.2-0.5-0.4-0.9-0.4
	c-0.3,0-0.6,0.1-0.9,0.4c-0.2,0.2-0.4,0.5-0.4,0.9C106.1,148.3,106.2,148.6,106.5,148.8L106.5,148.8L106.5,148.8
	c-0.2-0.3-0.3-0.5-0.3-0.8c0-0.3,0.1-0.6,0.3-0.8c0.2-0.2,0.5-0.3,0.8-0.3c0.3,0,0.6,0.1,0.8,0.3c0.2,0.2,0.3,0.5,0.3,0.8
	c0,0.3-0.1,0.6-0.3,0.8c-0.2,0.2-0.5,0.3-0.8,0.3C107,149.1,106.8,149,106.5,148.8L106.5,148.8z"/>
<path class="st1" d="M125.9,148c0,2.2-0.2,3.7-0.6,4.4c-0.4,0.8-1,1.1-1.8,1.1c-0.7,0-1.3-0.4-1.6-1.1c-0.4-0.8-0.6-2.3-0.6-4.5
	c0-3.5,0.7-5.3,2.2-5.3C125.1,142.6,125.9,144.4,125.9,148z M128.6,155.2c1.2-1.7,1.7-4.1,1.7-7.1s-0.6-5.4-1.8-7.1
	c-1.2-1.6-2.9-2.5-5.1-2.5c-2.1,0-3.7,0.8-4.9,2.5c-1.2,1.6-1.7,3.9-1.7,6.9c0,3.2,0.6,5.6,1.7,7.3c1.2,1.7,2.8,2.5,5,2.5
	C125.8,157.7,127.4,156.9,128.6,155.2z"/>
<path class="st0" d="M125.9,148L125.9,148c0,2.2-0.3,3.7-0.7,4.4c-0.4,0.7-1,1.1-1.7,1.1c-0.7,0-1.2-0.4-1.6-1.1
	c-0.4-0.7-0.6-2.2-0.6-4.5c0-3.5,0.8-5.2,2.2-5.2C125,142.7,125.8,144.4,125.9,148L125.9,148L125.9,148c0-3.6-0.7-5.4-2.4-5.4
	c-1.5,0-2.3,1.8-2.3,5.3c0,2.3,0.2,3.8,0.6,4.5c0.4,0.8,1,1.2,1.7,1.2c0.8,0,1.4-0.4,1.8-1.2C125.7,151.7,125.9,150.2,125.9,148
	L125.9,148z M128.6,155.2L128.6,155.2c1.2-1.7,1.8-4.1,1.8-7.1c0-3.1-0.6-5.4-1.8-7.1c-1.2-1.7-2.9-2.5-5.1-2.5
	c-2.1,0-3.7,0.8-4.9,2.5c-1.2,1.7-1.8,4-1.8,6.9c0,3.2,0.6,5.6,1.7,7.3c1.2,1.7,2.9,2.6,5.1,2.6
	C125.8,157.8,127.4,156.9,128.6,155.2L128.6,155.2L128.6,155.2c-1.2,1.6-2.8,2.5-4.9,2.5c-2.2,0-3.9-0.8-5-2.5
	c-1.1-1.7-1.7-4.1-1.7-7.3c0-2.9,0.6-5.2,1.7-6.9c1.2-1.6,2.8-2.4,4.8-2.4c2.2,0,3.9,0.8,5,2.5c1.2,1.6,1.7,4,1.7,7
	C130.2,151.1,129.7,153.5,128.6,155.2L128.6,155.2z"/>
<path class="st0" d="M157.6,151.9c0.1-0.2,0.3-0.4,0.6-0.4c0.3,0,0.5,0.1,0.6,0.4s0.2,0.6,0.2,1.1h-1.6
	C157.4,152.5,157.4,152.1,157.6,151.9z M158.7,155.6c-0.2,0.1-0.3,0.2-0.5,0.2c-0.6,0-0.9-0.5-0.9-1.6h3.8c0-1.2-0.2-2-0.4-2.6
	c-0.2-0.5-0.6-1-1.1-1.3c-0.5-0.3-1-0.5-1.5-0.5c-0.9,0-1.6,0.3-2.1,1c-0.5,0.7-0.8,1.6-0.8,2.7c0,1.2,0.3,2.2,0.8,2.9s1.3,1,2.2,1
	c1.5,0,2.4-0.8,2.7-2.4H159C159,155.3,158.9,155.5,158.7,155.6z M148.1,150.1v7.2h2.3v-4.4c0-0.6,0.2-0.9,0.7-0.9
	c0.2,0,0.3,0.1,0.4,0.2c0.1,0.2,0.2,0.4,0.2,0.6v4.4h2.3v-5.6c0-0.6-0.1-1-0.4-1.4c-0.3-0.3-0.7-0.5-1.2-0.5c-0.8,0-1.4,0.4-1.9,1.2
	h0v-1H148.1z M144,157.3h2.3v-7.2H144V157.3z M144.3,148.8c0.2,0.2,0.5,0.4,0.8,0.4c0.3,0,0.6-0.1,0.9-0.4c0.2-0.2,0.4-0.5,0.4-0.8
	c0-0.3-0.1-0.6-0.4-0.9s-0.5-0.4-0.9-0.4c-0.3,0-0.6,0.1-0.8,0.4s-0.4,0.5-0.4,0.9C144,148.2,144.1,148.5,144.3,148.8z M139.9,157.3
	h2.3v-11h-2.3V157.3z M132.3,150.1v7.2h2.3v-4.4c0-0.6,0.2-0.9,0.7-0.9c0.2,0,0.3,0.1,0.4,0.2c0.1,0.2,0.2,0.4,0.2,0.6v4.4h2.3v-5.6
	c0-0.6-0.1-1-0.4-1.4c-0.3-0.3-0.7-0.5-1.2-0.5c-0.8,0-1.4,0.4-1.9,1.2h0v-1H132.3z"/>
<path class="st1" d="M157.6,151.9L157.6,151.9c0.2-0.2,0.4-0.3,0.6-0.3c0.3,0,0.4,0.1,0.5,0.3c0.1,0.2,0.2,0.6,0.2,1.1l0.1,0v-0.1
	h-1.6v0.1h0C157.4,152.5,157.5,152.1,157.6,151.9L157.6,151.9L157.6,151.9c-0.2,0.2-0.2,0.6-0.2,1.1v0h1.8l0-0.1
	c0-0.5-0.1-0.9-0.2-1.1c-0.1-0.3-0.4-0.4-0.6-0.4C157.9,151.5,157.7,151.6,157.6,151.9L157.6,151.9z M158.7,155.6L158.7,155.6
	c-0.2,0.1-0.3,0.2-0.5,0.2c-0.5,0-0.8-0.5-0.8-1.6l0,0v0h3.8l0-0.1c0-1.2-0.2-2-0.4-2.6c-0.2-0.6-0.6-1-1.1-1.3
	c-0.5-0.3-1-0.5-1.6-0.5c-0.9,0-1.6,0.4-2.2,1c-0.5,0.7-0.8,1.6-0.8,2.8c0,1.2,0.3,2.2,0.8,2.9c0.5,0.7,1.3,1.1,2.2,1.1
	c1.5,0,2.4-0.8,2.8-2.5l0-0.1h-2l0,0C158.9,155.3,158.9,155.4,158.7,155.6L158.7,155.6L158.7,155.6c0.2-0.1,0.3-0.3,0.3-0.5l0,0v0
	h1.9v0l0,0c-0.4,1.6-1.2,2.4-2.7,2.4c-0.9,0-1.6-0.3-2.1-1c-0.5-0.7-0.8-1.6-0.8-2.8c0-1.1,0.3-2,0.8-2.7c0.5-0.7,1.2-1,2.1-1
	c0.5,0,1,0.2,1.5,0.5c0.5,0.3,0.8,0.8,1.1,1.3c0.2,0.5,0.3,1.4,0.4,2.6l0.1,0v-0.1h-3.8l0,0.1c0,1.1,0.3,1.6,0.9,1.7
	C158.4,155.9,158.6,155.8,158.7,155.6L158.7,155.6z M148.1,150.1L148.1,150.1l-0.1,7.2h2.4v-4.4c0-0.6,0.2-0.9,0.7-0.9
	c0.2,0,0.3,0.1,0.4,0.2c0.1,0.1,0.2,0.3,0.2,0.6v4.5h2.4v-5.6c0-0.6-0.2-1-0.5-1.4c-0.3-0.3-0.7-0.5-1.2-0.5c-0.8,0-1.5,0.4-2,1.2
	l0,0V151h0v0.1h0v-1V150L148.1,150.1L148.1,150.1L148.1,150.1L148.1,150.1l2.2,0l0,0.9v0h0.1h0l0,0c0.5-0.8,1.2-1.2,1.9-1.2
	c0.5,0,0.9,0.2,1.2,0.5c0.3,0.3,0.4,0.8,0.4,1.3v5.5h-2.2v-4.4c0-0.3-0.1-0.5-0.2-0.6c-0.1-0.2-0.3-0.3-0.5-0.3
	c-0.5,0-0.8,0.3-0.8,1v4.3h-2.2L148.1,150.1L148.1,150.1L148.1,150.1L148.1,150.1z M144,157.3L144,157.3l2.3,0V150H144L144,157.3
	L144,157.3L144,157.3L144,157.3l0-7.1h2.2v7.1L144,157.3L144,157.3L144,157.3L144,157.3z M144.3,148.8L144.3,148.8
	c0.2,0.3,0.5,0.4,0.8,0.4c0.3,0,0.6-0.1,0.9-0.4c0.2-0.2,0.4-0.5,0.4-0.9c0-0.3-0.1-0.6-0.4-0.9c-0.2-0.2-0.5-0.4-0.9-0.4
	c-0.3,0-0.6,0.1-0.9,0.4c-0.2,0.2-0.4,0.5-0.4,0.9C143.9,148.3,144,148.6,144.3,148.8L144.3,148.8L144.3,148.8
	c-0.2-0.3-0.3-0.5-0.3-0.8c0-0.3,0.1-0.6,0.3-0.8c0.2-0.2,0.5-0.3,0.8-0.3c0.3,0,0.6,0.1,0.8,0.3c0.2,0.2,0.3,0.5,0.3,0.8
	c0,0.3-0.1,0.6-0.3,0.8c-0.2,0.2-0.5,0.3-0.8,0.3C144.8,149.1,144.6,149,144.3,148.8L144.3,148.8z M139.9,157.3L139.9,157.3l2.3,0
	v-11.1h-2.4L139.9,157.3L139.9,157.3L139.9,157.3L139.9,157.3l0-11h2.2l0,10.9L139.9,157.3L139.9,157.3L139.9,157.3L139.9,157.3z
	 M132.3,150.1L132.3,150.1l-0.1,7.2h2.4v-4.4c0-0.6,0.2-0.9,0.7-0.9c0.2,0,0.3,0.1,0.4,0.2c0.1,0.1,0.2,0.3,0.2,0.6v4.5h2.4v-5.6
	c0-0.6-0.2-1-0.5-1.4c-0.3-0.3-0.7-0.5-1.2-0.5c-0.8,0-1.5,0.4-2,1.2l0,0V151h0v0.1h0v-1V150L132.3,150.1L132.3,150.1L132.3,150.1
	L132.3,150.1l2.2,0v0.9v0h0.1h0l0,0c0.5-0.8,1.2-1.2,1.9-1.2c0.5,0,0.9,0.2,1.2,0.5c0.3,0.3,0.4,0.8,0.4,1.3v5.5h-2.2l0-4.4
	c0-0.3-0.1-0.5-0.2-0.6c-0.1-0.2-0.3-0.3-0.5-0.3c-0.5,0-0.8,0.3-0.8,1v4.3h-2.2L132.3,150.1L132.3,150.1L132.3,150.1L132.3,150.1z"
	/>
</svg>
